<svg id="KODGR_Obraz" xmlns="http://www.w3.org/2000/svg" viewBox="0 0 200.12 103.45" fill="#96744e"><path class="footer-logo" d="M185.62,103.45c-9.19,0-14.46-5.56-14.46-15.25,0-4.48,1.19-8.23,3.45-10.86,2.51-2.92,6.21-4.4,11.01-4.4s8.51,1.48,11.03,4.41c2.27,2.63,3.47,6.38,3.47,10.84,0,9.69-5.28,15.25-14.5,15.25Zm0-27.28c-7.13,0-10.44,3.82-10.44,12.03s3.32,12.03,10.44,12.03,10.49-3.82,10.49-12.03-3.33-12.03-10.49-12.03Zm-22.9,7.98c-.74-5.52-3.82-7.98-10.01-7.98-3.64,0-6.25,.98-8,2.99-1.73,1.99-2.57,4.95-2.57,9.04,0,8.21,3.36,12.03,10.57,12.03,5.87,0,9.19-2.95,10.17-9.01h-12.97v-2.92h16.74v14.38h-3.49v-6.37c-1.67,4.62-5.54,7.15-10.96,7.15-4.61,0-8.19-1.46-10.64-4.33-2.24-2.63-3.43-6.41-3.43-10.92s1.24-8.27,3.59-10.9c2.57-2.89,6.31-4.35,11.12-4.35,8.34,0,13,3.76,13.85,11.17v.14s-3.95,0-3.95,0v-.11Zm-33.74,4.53c2.63,.84,4.35,2.3,4.35,6.3v3.03c0,2.06,.29,3.43,.56,4.56l.04,.15h-3.75l-.03-.08c-.35-1.09-.52-2.6-.52-4.49v-2.64c0-3.87-1.93-5.67-6.07-5.67h-7.98v12.88h-3.84v-28.99h13.54c5.78,0,8.95,2.73,8.95,7.69,0,3.54-2.05,6.35-5.26,7.27Zm-4.09-11.82h-9.32v10.05h9.28c3.67,0,5.38-1.65,5.38-5.2,0-3.31-1.69-4.85-5.33-4.85Zm-39.92-3.14h21.55v3.14h-17.71v9.4h16.41v3.09h-16.41v10.22h17.84v3.14h-21.68v-28.99Zm-13.31,17.06h-9.28v11.93h-3.88v-28.99h13.33c7.97,0,8.83,5.95,8.83,8.51s-.88,8.55-9,8.55Zm-.61-13.92h-8.67v10.78h8.54c3.8,0,5.73-1.82,5.73-5.41s-1.78-5.37-5.6-5.37Zm-27.48-32.25v-3.93c6.4,0,11.61-5.2,11.61-11.6s-5.21-11.59-11.61-11.59h-1.97v-1.97c0-6.39-5.21-11.59-11.61-11.59s-11.61,5.2-11.61,11.59v1.97h-1.97c-6.4,0-11.61,5.2-11.61,11.59s5.21,11.6,11.61,11.6v3.93c-8.58,0-15.55-6.97-15.55-15.53,0-7.93,5.99-14.5,13.69-15.42C15.49,5.98,22.06,0,30.01,0s14.52,5.98,15.44,13.67c7.7,.92,13.69,7.48,13.69,15.42,0,8.56-6.98,15.53-15.55,15.53Zm-27.09,29.11l.03,.08,10.98,28.91h-3.9l-2.82-7.35H6.67l-2.82,7.35H0l11-28.99h5.49Zm3.12,18.5l-5.89-15.45-5.89,15.45h11.77Zm23.97-38.69v3.93c-5.83,0-10.92-3.22-13.58-7.97-2.66,4.75-7.75,7.97-13.58,7.97v-3.93c6.4,0,11.61-5.2,11.61-11.59s-5.21-11.59-11.61-11.59v-3.94c4.61,0,8.76,2.02,11.61,5.21V15.53h3.94V31.63c2.85-3.2,7-5.21,11.61-5.21v3.94c-6.4,0-11.61,5.2-11.61,11.59s5.21,11.59,11.61,11.59Zm-10.73,39.2c.1,5.03,3.1,7.58,8.93,7.58,5.35,0,7.63-1.57,7.63-5.24,0-2.92-1.54-4.43-5.14-5.03l-6.8-1.04c-4.99-.73-7.42-3.23-7.42-7.64,0-5.19,4.24-8.42,11.08-8.42s11.35,3.44,11.77,9.45v.13s-3.69,0-3.69,0v-.11c-.43-4.2-3.23-6.42-8.12-6.42s-7.15,1.83-7.15,5.28c0,2.52,1.38,3.97,4.23,4.42l7.19,1.08c5.42,.87,7.94,3.36,7.94,7.82,0,5.9-3.77,8.77-11.51,8.77-8.18,0-12.68-3.77-12.68-10.63v-.12h3.75v.12Z"></path></svg>